<svg width="14" height="11" viewBox="0 0 14 11" fill="none" xmlns="http://www.w3.org/2000/svg">
<path d="M6.95306 8.59381C5.41129 8.59381 4.16324 7.33247 4.0484 5.73403L1.91614 3.99229C1.63584 4.36397 1.37789 4.75692 1.16975 5.1866C1.12325 5.28382 1.09903 5.39123 1.09903 5.50017C1.09903 5.6091 1.12325 5.71651 1.16975 5.81373C2.27206 8.087 4.45432 9.62506 6.95306 9.62506C7.50005 9.62506 8.02773 9.53913 8.5363 9.40034L7.48155 8.53774C7.30736 8.57331 7.13047 8.59207 6.95306 8.59381ZM13.3319 9.84206L11.0848 8.00643C11.7674 7.3984 12.3288 6.65298 12.7364 5.81352C12.7829 5.7163 12.8071 5.60889 12.8071 5.49995C12.8071 5.39102 12.7829 5.28361 12.7364 5.18639C11.6341 2.91313 9.4518 1.37506 6.95306 1.37506C5.90655 1.3764 4.87703 1.65486 3.95855 2.18502L1.37261 0.0724588C1.33889 0.0447241 1.30033 0.0242844 1.25913 0.0123079C1.21793 0.00033135 1.1749 -0.00294734 1.13251 0.00265917C1.09011 0.00826569 1.04917 0.0226475 1.01204 0.0449828C0.974901 0.0673181 0.942292 0.0971691 0.916075 0.13283L0.517065 0.675741C0.464134 0.74771 0.440416 0.838954 0.451128 0.929404C0.461839 1.01986 0.506102 1.10211 0.574183 1.15807L12.5335 10.9277C12.5672 10.9554 12.6058 10.9758 12.647 10.9878C12.6882 10.9998 12.7312 11.0031 12.7736 10.9975C12.816 10.9919 12.8569 10.9775 12.8941 10.9551C12.9312 10.9328 12.9638 10.903 12.99 10.8673L13.3893 10.3244C13.4422 10.2524 13.4659 10.1611 13.4551 10.0707C13.4444 9.98022 13.4001 9.89799 13.3319 9.84206ZM9.59755 6.79127L8.79871 6.13858C8.86599 5.93307 8.90167 5.7175 8.90441 5.50006C8.90838 5.18172 8.84165 4.86683 8.70959 4.58069C8.57754 4.29455 8.38383 4.04513 8.14403 3.85247C7.90423 3.65981 7.62502 3.52928 7.32883 3.47136C7.03265 3.41344 6.72774 3.42976 6.4386 3.51898C6.56117 3.69453 6.62747 3.90688 6.62784 4.12506C6.6248 4.19766 6.61431 4.2697 6.59653 4.3399L5.1003 3.11766C5.62004 2.65858 6.27573 2.40684 6.95306 2.40631C7.3375 2.40608 7.71822 2.48595 8.07344 2.64135C8.42866 2.79674 8.75141 3.02462 9.02326 3.31194C9.2951 3.59927 9.51069 3.94041 9.65771 4.31587C9.80473 4.69132 9.8803 5.09372 9.88009 5.50006C9.88009 5.96477 9.77256 6.39768 9.59755 6.79127Z" fill="#1B1F2C"/>
</svg>
