<svg width="13" height="8" viewBox="0 0 13 8" fill="none" xmlns="http://www.w3.org/2000/svg">
<path d="M12.3858 3.69583C11.2552 1.49146 9.01698 0 6.45416 0C3.89134 0 1.6525 1.4925 0.522551 3.69604C0.47486 3.79031 0.450012 3.89447 0.450012 4.0001C0.450012 4.10574 0.47486 4.20989 0.522551 4.30417C1.65313 6.50854 3.89134 8 6.45416 8C9.01698 8 11.2558 6.5075 12.3858 4.30396C12.4335 4.20969 12.4583 4.10553 12.4583 3.9999C12.4583 3.89426 12.4335 3.79011 12.3858 3.69583ZM6.45416 7C5.86041 7 5.27999 6.82405 4.7863 6.49441C4.29261 6.16476 3.90782 5.69623 3.6806 5.14805C3.45338 4.59987 3.39393 3.99667 3.50977 3.41473C3.6256 2.83279 3.91152 2.29824 4.33137 1.87868C4.75122 1.45912 5.28614 1.1734 5.86849 1.05764C6.45083 0.941889 7.05445 1.0013 7.60301 1.22836C8.15157 1.45542 8.62043 1.83994 8.9503 2.33329C9.28018 2.82664 9.45624 3.40666 9.45624 4C9.45644 4.39402 9.37892 4.78421 9.22812 5.14828C9.07731 5.51234 8.85619 5.84313 8.57738 6.12175C8.29857 6.40036 7.96755 6.62133 7.60324 6.77203C7.23892 6.92273 6.84846 7.00019 6.45416 7ZM6.45416 2C6.27552 2.00249 6.09804 2.02905 5.92651 2.07896C6.0679 2.27097 6.13575 2.50727 6.11775 2.74499C6.09976 2.98271 5.99711 3.20611 5.82842 3.37469C5.65972 3.54326 5.43617 3.64584 5.19828 3.66383C4.9604 3.68181 4.72394 3.614 4.53179 3.47271C4.42237 3.87554 4.44212 4.30252 4.58826 4.69354C4.7344 5.08457 4.99957 5.41995 5.34644 5.65249C5.69331 5.88503 6.10442 6.00301 6.52191 5.98983C6.9394 5.97665 7.34224 5.83298 7.67373 5.57902C8.00523 5.32507 8.24868 4.97363 8.36983 4.57416C8.49098 4.1747 8.48372 3.74733 8.34908 3.3522C8.21444 2.95708 7.95919 2.61409 7.61927 2.37152C7.27934 2.12895 6.87186 1.99902 6.45416 2Z" fill="#1B1F2C"/>
</svg>
