<svg width="14" height="14" viewBox="0 0 14 14" fill="none" xmlns="http://www.w3.org/2000/svg">
<path d="M13.8086 12.1133C13.918 12.25 14 12.4141 14 12.5781C14 12.7695 13.918 12.9336 13.8086 13.043L13.043 13.8086C12.9062 13.9453 12.7422 14 12.5781 14C12.3867 14 12.2227 13.9453 12.1133 13.8086L9.37891 11.0742C9.24219 10.9648 9.1875 10.8008 9.1875 10.6094V10.1719C8.14844 10.9922 7 11.375 5.6875 11.375C4.64844 11.375 3.69141 11.1289 2.81641 10.6094C1.94141 10.1172 1.25781 9.43359 0.765625 8.55859C0.246094 7.68359 0 6.72656 0 5.6875C0 4.64844 0.246094 3.71875 0.765625 2.84375C1.25781 1.96875 1.94141 1.28516 2.81641 0.765625C3.69141 0.273438 4.64844 0 5.6875 0C6.72656 0 7.65625 0.273438 8.53125 0.765625C9.40625 1.28516 10.0898 1.96875 10.6094 2.84375C11.1016 3.71875 11.375 4.64844 11.375 5.6875C11.375 7 10.9648 8.17578 10.1719 9.1875H10.6094C10.7734 9.1875 10.9375 9.26953 11.0742 9.37891L13.8086 12.1133ZM5.6875 9.1875C6.31641 9.1875 6.89062 9.05078 7.4375 8.72266C7.98438 8.42188 8.39453 8.01172 8.72266 7.46484C9.02344 6.91797 9.1875 6.34375 9.1875 5.6875C9.1875 5.05859 9.02344 4.48438 8.72266 3.9375C8.39453 3.39062 7.98438 2.98047 7.4375 2.65234C6.89062 2.35156 6.31641 2.1875 5.6875 2.1875C5.03125 2.1875 4.45703 2.35156 3.91016 2.65234C3.36328 2.98047 2.95312 3.39062 2.65234 3.9375C2.32422 4.48438 2.1875 5.05859 2.1875 5.6875C2.1875 6.34375 2.32422 6.91797 2.65234 7.46484C2.95312 8.01172 3.36328 8.42188 3.91016 8.72266C4.45703 9.05078 5.03125 9.1875 5.6875 9.1875Z" fill="#272A37"/>
</svg>
