<svg width="12" height="12" viewBox="0 0 12 12" fill="none" xmlns="http://www.w3.org/2000/svg">
<path d="M11.7727 4.47188C11.8641 4.39922 12 4.46719 12 4.58203V9.375C12 9.99609 11.4961 10.5 10.875 10.5H1.125C0.503906 10.5 0 9.99609 0 9.375V4.58438C0 4.46719 0.133594 4.40156 0.227344 4.47422C0.752344 4.88203 1.44844 5.4 3.83906 7.13672C4.33359 7.49766 5.16797 8.25703 6 8.25234C6.83672 8.25938 7.6875 7.48359 8.16328 7.13672C10.5539 5.4 11.2477 4.87969 11.7727 4.47188ZM6 7.5C6.54375 7.50938 7.32656 6.81563 7.72031 6.52969C10.8305 4.27266 11.0672 4.07578 11.7844 3.51328C11.9203 3.40781 12 3.24375 12 3.07031V2.625C12 2.00391 11.4961 1.5 10.875 1.5H1.125C0.503906 1.5 0 2.00391 0 2.625V3.07031C0 3.24375 0.0796875 3.40547 0.215625 3.51328C0.932813 4.07344 1.16953 4.27266 4.27969 6.52969C4.67344 6.81563 5.45625 7.50938 6 7.5Z" fill="#AAA9D2"/>
</svg>
